<svg width="320" height="74" viewBox="0 0 320 74" fill="none" xmlns="http://www.w3.org/2000/svg">
<rect width="320" height="74" fill="#202020"/>
<path fill-rule="evenodd" clip-rule="evenodd" d="M297 30L275 30V27.5L297 27.5V30Z" fill="white"/>
<path fill-rule="evenodd" clip-rule="evenodd" d="M297 39L275 39V36.5L297 36.5V39Z" fill="white"/>
<path fill-rule="evenodd" clip-rule="evenodd" d="M297 48L275 48V45.5L297 45.5V48Z" fill="white"/>
<path fill-rule="evenodd" clip-rule="evenodd" d="M33 56C43.4934 56 52 47.4934 52 37C52 26.5066 43.4934 18 33 18C22.5066 18 14 26.5066 14 37C14 47.4934 22.5066 56 33 56ZM33 46.5C38.2467 46.5 42.5 42.2467 42.5 37C42.5 31.7533 38.2467 27.5 33 27.5C27.7533 27.5 23.5 31.7533 23.5 37C23.5 42.2467 27.7533 46.5 33 46.5Z" fill="#3DDC84"/>
</svg>
